<svg width="64" height="64" viewBox="0 0 64 64" fill="none" xmlns="http://www.w3.org/2000/svg">
<path d="M32 0C14.3269 0 0 14.3269 0 32C0 49.673 14.3269 64 32 64C49.673 64 64 49.673 64 32C64 14.3269 49.673 0 32 0Z" fill="#163459"/>
<path d="M32.0003 12.8C26.6986 12.8 22.4004 17.0981 22.4004 22.4C22.4004 27.7021 26.6986 32 32.0003 32C37.3024 32 41.6003 27.7021 41.6003 22.4C41.6003 17.0981 37.3024 12.8 32.0003 12.8Z" fill="white"/>
<path d="M50.8634 46.5689C51.3139 47.4697 51.3139 48.5301 50.8634 49.4313C50.8906 49.3749 50.8611 49.4357 50.8611 49.4357L50.8586 49.4405L50.8538 49.4501L50.8426 49.4719L50.8163 49.5218C50.7968 49.5586 50.7734 49.6012 50.7462 49.6495C50.6912 49.7465 50.6198 49.8661 50.5302 50.0053C50.3514 50.2841 50.0989 50.6412 49.7594 51.0485C49.0784 51.8655 48.0525 52.8783 46.576 53.8626C43.5936 55.8508 38.9606 57.5999 32.0006 57.5999C20.2082 57.5999 15.25 52.5772 13.6533 50.2767C12.6872 48.8847 12.7942 47.2585 13.3785 46.0898C15.735 41.3769 20.5519 38.3999 25.8211 38.3999H37.6458C43.2432 38.3999 48.36 41.5625 50.8634 46.5689Z" fill="white"/>
</svg>
