<svg width="40" height="41" viewBox="0 0 40 41" fill="none" xmlns="http://www.w3.org/2000/svg">
<path d="M29.9613 16.4773L34.4925 20.6185C35.04 21.126 34.8838 21.5173 34.1413 21.5173H30.7425V32.3373C30.7425 33.0798 30.1175 33.7435 29.375 33.7435H23.4763V26.1648C23.4763 25.4223 22.8125 24.7585 22.07 24.7585H18.3588C17.6163 24.7585 16.9525 25.4223 16.9525 26.1648V33.7435H11.0538C10.3113 33.7435 9.64751 33.0798 9.64751 32.3373V21.5173H6.28751C5.54501 21.5173 5.38876 21.126 5.93626 20.6185L19.1788 8.5873C19.7263 8.0798 20.6638 8.0798 21.2488 8.5873L24.2563 11.2823V9.13354C24.2563 8.39104 24.92 7.72729 25.6625 7.72729H28.5925C29.335 7.72729 29.96 8.39104 29.96 9.13354L29.9613 16.4773Z" fill="#FFFCFC"/>
</svg>
