<svg width="61" height="60" viewBox="0 0 61 60" fill="none" xmlns="http://www.w3.org/2000/svg">
<path d="M30.4985 0C14.0838 0 0.7771 13.4314 0.7771 30C0.7771 46.5684 14.0838 60 30.4985 60C46.913 60 60.2198 46.5684 60.2198 30C60.2198 13.4314 46.913 0 30.4985 0Z" fill="#5675EA"/>
<path d="M30.4987 12C25.5745 12 21.5824 16.0295 21.5824 21C21.5824 25.9707 25.5745 30 30.4987 30C35.4233 30 39.4152 25.9707 39.4152 21C39.4152 16.0295 35.4233 12 30.4987 12Z" fill="white"/>
<path d="M48.0186 43.6584C48.4371 44.5029 48.4371 45.4971 48.0186 46.3419C48.0439 46.2891 48.0165 46.3461 48.0165 46.3461L48.0142 46.3506L48.0097 46.3596L47.9993 46.38L47.9749 46.4268C47.9568 46.4613 47.9351 46.5012 47.9098 46.5465C47.8587 46.6374 47.7924 46.7496 47.7092 46.8801C47.5431 47.1414 47.3086 47.4762 46.9932 47.8581C46.3608 48.624 45.4079 49.5735 44.0366 50.4963C41.2665 52.3602 36.9635 54 30.4991 54C19.5464 54 14.9412 49.2912 13.4582 47.1345C12.5609 45.8295 12.6603 44.3049 13.203 43.2093C15.3916 38.7909 19.8656 36 24.7596 36H35.7422C40.9411 36 45.6935 38.9649 48.0186 43.6584Z" fill="white"/>
</svg>
