<svg width="61" height="60" viewBox="0 0 61 60" fill="none" xmlns="http://www.w3.org/2000/svg">
<path d="M30.7771 0C14.2085 0 0.7771 13.4314 0.7771 30C0.7771 46.5684 14.2085 60 30.7771 60C47.3455 60 60.7771 46.5684 60.7771 30C60.7771 13.4314 47.3455 0 30.7771 0Z" fill="#D9E1EC"/>
<path d="M30.7774 12C25.807 12 21.7775 16.0295 21.7775 21C21.7775 25.9707 25.807 30 30.7774 30C35.7481 30 39.7774 25.9707 39.7774 21C39.7774 16.0295 35.7481 12 30.7774 12Z" fill="white"/>
<path d="M48.4615 43.6584C48.8839 44.5029 48.8839 45.4971 48.4615 46.3419C48.487 46.2891 48.4594 46.3461 48.4594 46.3461L48.457 46.3506L48.4525 46.3596L48.442 46.38L48.4174 46.4268C48.3991 46.4613 48.3772 46.5012 48.3517 46.5465C48.3001 46.6374 48.2332 46.7496 48.1492 46.8801C47.9815 47.1414 47.7448 47.4762 47.4265 47.8581C46.7881 48.624 45.8263 49.5735 44.4421 50.4963C41.6461 52.3602 37.3027 54 30.7777 54C19.7223 54 15.074 49.2912 13.5771 47.1345C12.6714 45.8295 12.7717 44.3049 13.3195 43.2093C15.5286 38.7909 20.0445 36 24.9844 36H36.07C41.3176 36 46.1146 38.9649 48.4615 43.6584Z" fill="white"/>
</svg>
