<svg width="28" height="29" viewBox="0 0 28 29" fill="none" xmlns="http://www.w3.org/2000/svg">
<path d="M0 2.48486C0 2.02073 0.163888 1.57562 0.455612 1.24743C0.747335 0.919238 1.143 0.734863 1.55556 0.734863H26.4444C26.857 0.734863 27.2527 0.919238 27.5444 1.24743C27.8361 1.57562 28 2.02073 28 2.48486V19.9849C28 20.449 27.8361 20.8941 27.5444 21.2223C27.2527 21.5505 26.857 21.7349 26.4444 21.7349H23.3333V28.7349L15.5556 21.7349H1.55556C1.143 21.7349 0.747335 21.5505 0.455612 21.2223C0.163888 20.8941 0 20.449 0 19.9849V2.48486Z" fill="white"/>
</svg>
