<svg width="20" height="22" viewBox="0 0 20 22" fill="none" xmlns="http://www.w3.org/2000/svg">
<path fill-rule="evenodd" clip-rule="evenodd" d="M10.0001 0.5C10.3095 0.5 10.6063 0.62292 10.825 0.841705L18.9917 9.00838C19.4473 9.46397 19.4473 10.2027 18.9917 10.6583C18.5361 11.1139 17.7974 11.1139 17.3418 10.6583L11.1667 4.48324V20.3333C11.1667 20.9777 10.6444 21.5 10.0001 21.5C9.35573 21.5 8.83341 20.9777 8.83341 20.3333V4.48324L2.65838 10.6583C2.20276 11.1139 1.46407 11.1139 1.00845 10.6583C0.552846 10.2027 0.552846 9.46397 1.00845 9.00838L9.17513 0.841705C9.39388 0.62292 9.69068 0.5 10.0001 0.5Z" fill="white"/>
</svg>
